<?xml version="1.0" encoding="UTF-8"?>
<svg width="512" height="512" viewBox="0 0 512 512" fill="none" xmlns="http://www.w3.org/2000/svg">
  <!-- Background Circle -->
  <circle cx="256" cy="256" r="256" fill="#2196F3"/>
  
  <!-- Label Shape -->
  <path d="M256 96C179.96 96 120 155.96 120 232C120 308.04 179.96 368 256 368C332.04 368 392 308.04 392 232C392 155.96 332.04 96 256 96ZM256 336C197.6 336 152 290.4 152 232C152 173.6 197.6 128 256 128C314.4 128 360 173.6 360 232C360 290.4 314.4 336 256 336Z" fill="white"/>
  
  <!-- SS Letters -->
  <path d="M256 160C211.8 160 176 195.8 176 240C176 284.2 211.8 320 256 320C300.2 320 336 284.2 336 240C336 195.8 300.2 160 256 160ZM256 288C229.5 288 208 266.5 208 240C208 213.5 229.5 192 256 192C282.5 192 304 213.5 304 240C304 266.5 282.5 288 256 288Z" fill="#2196F3"/>
  <path d="M256 192C238.3 192 224 206.3 224 224C224 241.7 238.3 256 256 256C273.7 256 288 241.7 288 224C288 206.3 273.7 192 256 192Z" fill="white"/>
</svg> 